<?xml version="1.0" encoding="utf-8"?>
<!-- Generator: Adobe Illustrator 27.0.1, SVG Export Plug-In . SVG Version: 6.00 Build 0)  -->
<svg version="1.1" xmlns="http://www.w3.org/2000/svg" xmlns:xlink="http://www.w3.org/1999/xlink" x="0px" y="0px"
	 viewBox="0 0 208 208" style="enable-background:new 0 0 208 208;" xml:space="preserve">
<style type="text/css">
	.st0{stroke:#FFFFFF;stroke-miterlimit:10;}
	.st1{fill:#FFFFFF;stroke:#000000;stroke-miterlimit:10;}
</style>
<g id="black">
	<rect x="-0.8" y="-0.4" class="st0" width="209.1" height="209.1"/>
</g>
<g id="Layer_1" xmlns:mydata="http://www.w3.org/2000/svg">
	<path class="st1" d="z"/>
	<path class="st1" d="z"/>
	<path class="st1" d="M137.6,103.4c0,17.2-11.8,24.9-35.2,24.9c-23.5,0-35.2-7.7-35.2-24.9c0-17.2,11.7-24.8,35.2-24.8
		C125.8,78.6,137.6,86.2,137.6,103.4z M122.8,103.4c0-10.4-5.4-12.3-20.4-12.3c-15,0-20.4,1.9-20.4,12.3c0,10.4,5.4,12.4,20.4,12.4
		C117.4,115.8,122.8,113.8,122.8,103.4z"/>
	<path class="st1" d="M169.4,42.3c-3.4,0.2-11.3,1.2-15.6,2c-5.8,1.1-13.2,2.9-13.2,3.2c0,0.2,0.7,0.8,1.5,1.5l1.5,1.2l5.6-1.1
		c15.5-3.2,26.2-3.7,34.7-1.5c6.1,1.5,10.9,4.9,12.9,9c0.8,1.6,0.9,2.3,0.9,5.7c0,3.3-0.2,4.3-1,6.6c-5.6,15-23.3,31.9-52.7,50.2
		c-15,9.3-33.6,18.3-52.2,25.2c-23.5,8.7-46.5,13-60.6,11.2c-7.9-1-12.9-2.9-16.4-6.4c-3.1-3.1-4-5.4-3.7-9.8
		c0.2-3.5,1-6.1,3.2-10.4c3.3-6.5,9.5-14,17.5-21.2l2.7-2.4v-2.5c0-1.9-0.1-2.4-0.5-2.1c-12.4,9.4-21.6,18.9-27,28.1
		c-4.7,7.9-6.4,14.4-5.3,20.2c1.9,10.1,12.5,16.6,28.6,17.5c26.3,1.6,63.3-9.5,103.2-30.8l3.5-1.9l-2.7,2.6
		c-7.9,7.5-24,16.8-40.8,23.6l-6.8,2.7l1.6,0.5c5,1.5,7.5,1.7,15.2,1.7c8.5,0,12-0.5,18.7-2.8c13-4.4,25.4-14.2,32.5-25.8
		c3.3-5.4,6.1-11.8,7.4-17.1c0.4-1.5,0.8-1.9,6.3-6c7.4-5.5,9.4-7.2,16-13.7c10.1-9.9,16.9-19.6,19.7-28.5
		c1.4-4.4,1.7-10.3,0.6-13.9c-1.9-6.4-8-11.3-16.8-13.5C183,42.3,176.7,41.9,169.4,42.3L169.4,42.3z"/>
	<path class="st1" d="M94.9,44.8C81.2,46.8,70.5,52.3,60.7,62C52.6,70.1,47.8,78.4,45,89c-5.2,19.5,0.2,41.4,13.7,55.6l3.2,3.3
		l3.3-0.8c5.2-1.3,16-4.5,16-4.8c0-0.1-1.4-1.2-3.2-2.4c-17.5-11.9-23.6-35-14.3-54.3c5.1-10.6,14.9-19.3,25.8-22.9
		c8.9-3,19.7-3,28.1-0.2c13,4.4,23.4,14.7,27.9,27.4c1.8,5,2.4,8.9,2.4,15.1c0,3,0.1,5.4,0.3,5.4c0.4,0,11.2-7.3,13.8-9.3l2-1.6
		l-0.2-2.4c-2.5-25.4-22.3-46.6-48.2-51.8C110.3,44.3,99.8,44,94.9,44.8L94.9,44.8z"/>
</g>
</svg>
