<svg xmlns="http://www.w3.org/2000/svg" version="1.1" xmlns:xlink="http://www.w3.org/1999/xlink" width="120" height="120"><svg version="1.1" xmlns="http://www.w3.org/2000/svg" xmlns:xlink="http://www.w3.org/1999/xlink" x="0px" y="0px" viewBox="0 0 120 120" style="enable-background:new 0 0 120 120;" xml:space="preserve">
<style type="text/css">
	.st0{stroke:#FFFFFF;stroke-miterlimit:10;}
	.st1{fill:#FFFFFF;stroke:#000000;stroke-miterlimit:10;}
</style>
<g id="SvgjsG1013">
	<path class="st0" d="M107.3,120.3H12.7c-7.2,0-13-5.8-13-13V12.6c0-7.2,5.8-13,13-13h94.7c7.2,0,13,5.8,13,13v94.7
		C120.3,114.5,114.5,120.3,107.3,120.3z"></path>
</g>
<g id="SvgjsG1012" xmlns:mydata="http://www.w3.org/2000/svg">
	<g>
		<path class="st1" d="M112.8,60c0,25.8-17.7,37.4-52.8,37.4C24.7,97.3,7.1,85.8,7.1,60c0-25.8,17.6-37.3,52.8-37.3
			C95.1,22.7,112.8,34.2,112.8,60z M90.5,60c0-15.6-8.1-18.5-30.6-18.5c-22.5,0-30.6,2.9-30.6,18.5S37.5,78.5,60,78.5
			C82.4,78.5,90.5,75.5,90.5,60z"></path>
	</g>
</g>
</svg><style>@media (prefers-color-scheme: light) { :root { filter: none; } }
@media (prefers-color-scheme: dark) { :root { filter: none; } }
</style></svg>