<?xml version="1.0" encoding="utf-8"?>
<!-- Generator: Adobe Illustrator 27.0.1, SVG Export Plug-In . SVG Version: 6.00 Build 0)  -->
<svg version="1.1" xmlns="http://www.w3.org/2000/svg" xmlns:xlink="http://www.w3.org/1999/xlink" x="0px" y="0px"
	 viewBox="0 0 22 22" style="enable-background:new 0 0 22 22;" xml:space="preserve">
<style type="text/css">
	.st0{fill:#FFFFFF;}
</style>
<g id="Layer_2">
</g>
<g id="Layer_1" xmlns:mydata="http://www.w3.org/2000/svg">
	<rect x="-0.2" y="-0.4" width="22.6" height="22.6"/>
	<path class="st0" d="M21.5,14.4c0,2.7-1.5,4.7-6.5,4.7H0.9V9.3h14.2c0.7,0,1.4-0.3,1.4-1.1c0-0.8-0.7-1-1.4-1H0.9L4.2,3h10.6
		c3.8,0,6.3,1.5,6.3,4.4c0,1.9-1.1,3-2.2,3.4C20.4,11.2,21.5,12.5,21.5,14.4z M5.9,12.7v2.2H15c1.1,0,1.5-0.4,1.5-1.1
		c0-0.7-0.5-1.1-1.5-1.1H5.9z"/>
</g>
</svg>
