<?xml version="1.0" encoding="utf-8"?>
<!-- Generator: Adobe Illustrator 27.0.1, SVG Export Plug-In . SVG Version: 6.00 Build 0)  -->
<svg version="1.1" id="Layer_1" xmlns:mydata="http://www.w3.org/2000/svg"
	 xmlns="http://www.w3.org/2000/svg" xmlns:xlink="http://www.w3.org/1999/xlink" x="0px" y="0px" viewBox="0 0 43.5 43.5"
	 style="enable-background:new 0 0 43.5 43.5;" xml:space="preserve">
<style type="text/css">
	.st0{fill:#FFFFFF;}
</style>
<g id="black">
	<rect x="-0.1" y="-0.2" width="43.7" height="43.7"/>
</g>
<path class="st0" d="M43.2,23.8c0,2.7-1.5,4.7-6.5,4.7H22.5v-9.8h14.2c0.7,0,1.4-0.3,1.4-1.1c0-0.8-0.7-1-1.4-1H22.5l3.1-4.2l10.8,0
	c3.8,0,6.3,1.5,6.3,4.4c0,1.9-1.1,3-2.2,3.4C42,20.6,43.2,21.9,43.2,23.8z M27.5,22.1v2.2h9.1c1.1,0,1.5-0.4,1.5-1.1
	c0-0.7-0.5-1.1-1.5-1.1H27.5z"/>
<polyline class="st0" points="18,18.6 26.1,8.1 28.2,8.1 20.1,18.6 "/>
<polyline class="st0" points="5.6,39.5 13.7,29 15.9,29 7.8,39.5 "/>
<path class="st0" d="M16.1,18.8c3.9,0,6,1.5,6,4.4c0,3.3-2,5.3-6.9,5.3h-15l3.2-4.1h12.1c1.2,0,1.7-0.3,1.7-1.2
	c0-0.8-0.5-1.2-1.7-1.2H6.9c-4.1,0-6-1.8-6-4.6c0-3,2-5,6.9-5h13.9l-3.2,4.2l-11.1,0c-1.2,0-1.7,0.3-1.7,1.1c0,0.8,0.6,1.1,1.7,1.1
	H16.1z M21.7,12.4L28.2,4h-1.7L20,12.4"/>
<polyline class="st0" points="11.2,36.5 19.3,26 21.4,26 13.3,36.5 "/>
</svg>
