<?xml version="1.0" encoding="utf-8"?>
<!-- Generator: Adobe Illustrator 27.0.1, SVG Export Plug-In . SVG Version: 6.00 Build 0)  -->
<svg version="1.1" id="Layer_1" xmlns="http://www.w3.org/2000/svg" xmlns:xlink="http://www.w3.org/1999/xlink" x="0px" y="0px"
	 viewBox="0 0 800 800" style="enable-background:new 0 0 800 800;" xml:space="preserve">
<g>
	<g>
		<path d="M400,145.5c-30.3,0-59.4,5.3-86.3,15c19.8,15.8,33.9,38.3,39,64c15.1-4.1,30.9-6.3,47.3-6.3
			c100.3,0,181.8,81.6,181.8,181.8S500.3,581.8,400,581.8S218.2,500.3,218.2,400c0-16.4,2.2-32.2,6.3-47.3
			c-25.7-5.1-48.2-19.2-64-39c-9.7,27-15,56-15,86.3c0,140.6,114,254.5,254.5,254.5s254.5-114,254.5-254.5S540.6,145.5,400,145.5z"
			/>
	</g>
</g>
<g>
	<g>
		<circle cx="245.7" cy="245.7" r="36.4"/>
	</g>
</g>
<g>
	<g>
		<path d="M400,0C179.4,0,0,179.4,0,400c0,71.5,18.9,138.7,51.9,196.9c3.9-5.9,8.5-11.6,13.8-16.8c12.8-12.8,28.2-22,45-27.2
			c-24.2-45.7-38-97.7-38-152.9C72.7,219.5,219.5,72.7,400,72.7S727.3,219.5,727.3,400S580.5,727.3,400,727.3
			c-55.2,0-107.3-13.8-152.9-38c-5,16.5-14.1,32-27.1,45.1c-5.2,5.2-10.8,9.8-16.8,13.8c58.2,33,125.3,51.9,196.8,51.9
			c220.6,0,400-179.4,400-400S620.6,0,400,0z"/>
	</g>
</g>
<g>
	<g>
		<path d="M168.5,631.5c-7.1-7.1-16.4-10.7-25.7-10.7c-9.3,0-18.6,3.5-25.7,10.7c-14.2,14.2-14.2,37.2,0,51.4
			c7.1,7.1,16.4,10.7,25.7,10.7c9.3,0,18.6-3.6,25.7-10.7C182.7,668.7,182.7,645.7,168.5,631.5z"/>
	</g>
</g>
<g>
	<g>
		<circle cx="400" cy="400" r="109.1"/>
	</g>
</g>
</svg>
