<?xml version="1.0" encoding="utf-8"?>
<!-- Generator: Adobe Illustrator 27.0.1, SVG Export Plug-In . SVG Version: 6.00 Build 0)  -->
<svg version="1.1" xmlns="http://www.w3.org/2000/svg" xmlns:xlink="http://www.w3.org/1999/xlink" x="0px" y="0px"
	 viewBox="0 0 120 120" style="enable-background:new 0 0 120 120;" xml:space="preserve">
<style type="text/css">
	.st0{stroke:#FFFFFF;stroke-miterlimit:10;}
	.st1{fill:#FFFFFF;stroke:#000000;stroke-miterlimit:10;}
</style>
<g id="black">
	<path class="st0" d="M107,119.1H13c-7.2,0-13-5.8-13-13V12.6c0-7.2,5.8-13,13-13h94c7.2,0,13,5.8,13,13v93.5
		C120,113.3,114.1,119.1,107,119.1z"/>
</g>
<g id="Layer_1" xmlns:mydata="http://www.w3.org/2000/svg">
	<g>
		<path class="st1" d="M112.8,60c0,25.8-17.7,37.4-52.8,37.4C24.7,97.3,7.1,85.8,7.1,60c0-25.8,17.6-37.3,52.8-37.3
			C95.1,22.7,112.8,34.2,112.8,60z M90.5,60c0-15.6-8.1-18.5-30.6-18.5c-22.5,0-30.6,2.9-30.6,18.5S37.5,78.5,60,78.5
			C82.4,78.5,90.5,75.5,90.5,60z"/>
	</g>
</g>
</svg>
